<svg width="155.659765625px" height="52.4px" xmlns="http://www.w3.org/2000/svg" viewBox="172.1701171875 48.8 155.659765625 52.4" style="background: rgba(0, 0, 0, 0);" preserveAspectRatio="xMidYMid"><defs><filter id="editing-extrude-glow"><feFlood flood-color="#333333" result="flood-1"></feFlood><feMorphology operator="erode" radius="1" in="SourceAlpha" result="erode"></feMorphology><feComposite operator="in" in="flood-1" in2="erode" result="comp1"></feComposite><feConvolveMatrix order="3,3" divisor="1" in="comp1" result="convolve" kernelMatrix="0 0 0 1 1 1 0 0 0"></feConvolveMatrix><feOffset dx="-3" dy="0" in="convolve" result="extrude"></feOffset><feComposite operator="in" in="flood-1" in2="extrude" result="comp-extrude"></feComposite><feFlood flood-color="#000000" result="flood-2"></feFlood><feComposite operator="in" in="flood-2" in2="SourceAlpha" result="comp2"></feComposite><feMorphology operator="dilate" radius="1" in="comp2" result="dilate"></feMorphology><feOffset dx="-4.5" dy="0" in="dilate" result="offset"></feOffset><feGaussianBlur in="offset" stdDeviation="5.8" result="blur"></feGaussianBlur><feComponentTransfer in="blur" result="shadow"><feFuncA type="linear" slope="0.8" intercept="-0.2"></feFuncA></feComponentTransfer><feMerge><feMergeNode in="shadow"></feMergeNode><feMergeNode in="comp-extrude"></feMergeNode><feMergeNode in="SourceGraphic"></feMergeNode></feMerge></filter></defs><g filter="url(#editing-extrude-glow)"><g transform="translate(201.7128268480301, 84.29999923706055)"><path d="M9.12 0.40L9.12 0.40L9.12 0.40Q6.56 0.40 6.32-3.24L6.32-3.24L2.88-3.24L2.88-3.24Q2.48-2.32 2.20-1.52L2.20-1.52L1.68 0L-1.12 0L5.18-13.20L9.48-13.20L10.32-3.48L10.32-3.48Q10.52-1.38 11.32-0.76L11.32-0.76L11.32-0.76Q10.74 0.40 9.12 0.40ZM4.60-7.24L3.50-4.70L6.26-4.70L6.02-9.84L6.02-10.38L4.60-7.24ZM21.80-1.37L21.80-1.37L21.80-1.37Q20.96-0.52 19.81-0.06L19.81-0.06L19.81-0.06Q18.66 0.40 17.52 0.40L17.52 0.40L17.52 0.40Q16.38 0.40 15.98 0.20L15.98 0.20L15.36 3.60L11.30 4L14.06-10.20L17.32-10.54L17.06-9.16L17.06-9.16Q17.90-10.58 19.64-10.58L19.64-10.58L19.64-10.58Q21.60-10.58 22.64-9.32L22.64-9.32L22.64-9.32Q23.56-8.18 23.56-6.44L23.56-6.44L23.56-6.44Q23.56-4.70 23.10-3.46L23.10-3.46L23.10-3.46Q22.64-2.22 21.80-1.37ZM17.28-6.98L16.22-1.12L16.22-1.12Q16.64-0.76 17.16-0.76L17.16-0.76L17.16-0.76Q17.68-0.76 17.98-0.96L17.98-0.96L17.98-0.96Q18.28-1.16 18.50-1.56L18.50-1.56L18.50-1.56Q19.10-2.64 19.58-5.92L19.58-5.92L19.58-5.92Q19.72-6.88 19.72-7.82L19.72-7.82L19.72-7.82Q19.72-8.76 19.51-9.06L19.51-9.06L19.51-9.06Q19.30-9.36 18.90-9.36L18.90-9.36L18.90-9.36Q17.68-9.36 17.28-6.98L17.28-6.98ZM34.08-1.37L34.08-1.37L34.08-1.37Q33.24-0.52 32.09-0.06L32.09-0.06L32.09-0.06Q30.94 0.40 29.80 0.40L29.80 0.40L29.80 0.40Q28.66 0.40 28.26 0.20L28.26 0.20L27.64 3.60L23.58 4L26.34-10.20L29.60-10.54L29.34-9.16L29.34-9.16Q30.18-10.58 31.92-10.58L31.92-10.58L31.92-10.58Q33.88-10.58 34.92-9.32L34.92-9.32L34.92-9.32Q35.84-8.18 35.84-6.44L35.84-6.44L35.84-6.44Q35.84-4.70 35.38-3.46L35.38-3.46L35.38-3.46Q34.92-2.22 34.08-1.37ZM29.56-6.98L28.50-1.12L28.50-1.12Q28.92-0.76 29.44-0.76L29.44-0.76L29.44-0.76Q29.96-0.76 30.26-0.96L30.26-0.96L30.26-0.96Q30.56-1.16 30.78-1.56L30.78-1.56L30.78-1.56Q31.38-2.64 31.86-5.92L31.86-5.92L31.86-5.92Q32-6.88 32-7.82L32-7.82L32-7.82Q32-8.76 31.79-9.06L31.79-9.06L31.79-9.06Q31.58-9.36 31.18-9.36L31.18-9.36L31.18-9.36Q29.96-9.36 29.56-6.98L29.56-6.98ZM43.30-5.62L43.30-5.62L43.30-5.62Q44.02-6.90 44.02-8.20L44.02-8.20L44.02-8.20Q44.02-9.06 43.40-9.06L43.40-9.06L43.40-9.06Q42.92-9.06 42.42-8.24L42.42-8.24L42.42-8.24Q41.90-7.42 41.74-6.36L41.74-6.36L40.70 0L36.56 0.40L38.60-10.20L41.90-10.60L41.54-8.58L41.54-8.58Q42.52-10.60 44.72-10.60L44.72-10.60L44.72-10.60Q45.88-10.60 46.51-10L46.51-10L46.51-10Q47.14-9.40 47.14-8.17L47.14-8.17L47.14-8.17Q47.14-6.94 46.33-6.16L46.33-6.16L46.33-6.16Q45.52-5.38 44.14-5.38L44.14-5.38L44.14-5.38Q43.54-5.38 43.30-5.62ZM48.33-0.60L48.33-0.60L48.33-0.60Q47.86-1.12 47.65-1.94L47.65-1.94L47.65-1.94Q47.44-2.76 47.44-4.10L47.44-4.10L47.44-4.10Q47.44-5.44 47.90-6.66L47.90-6.66L47.90-6.66Q48.36-7.88 49.20-8.76L49.20-8.76L49.20-8.76Q50.92-10.60 53.76-10.60L53.76-10.60L53.76-10.60Q54.78-10.60 55.52-10.26L55.52-10.26L58.94-10.60L57.46-2.80L57.46-2.80Q57.40-2.56 57.40-2.12L57.40-2.12L57.40-2.12Q57.40-1.68 57.67-1.40L57.67-1.40L57.67-1.40Q57.94-1.12 58.34-1.08L58.34-1.08L58.34-1.08Q58.14-0.40 57.41 0L57.41 0L57.41 0Q56.68 0.40 55.86 0.40L55.86 0.40L55.86 0.40Q55.04 0.40 54.49 0.09L54.49 0.09L54.49 0.09Q53.94-0.22 53.78-0.74L53.78-0.74L53.78-0.74Q53.46-0.24 52.78 0.08L52.78 0.08L52.78 0.08Q52.10 0.40 51.19 0.40L51.19 0.40L51.19 0.40Q50.28 0.40 49.54 0.16L49.54 0.16L49.54 0.16Q48.80-0.08 48.33-0.60ZM52.55-8.72L52.55-8.72L52.55-8.72Q52.32-8.36 52.12-7.75L52.12-7.75L52.12-7.75Q51.92-7.14 51.59-5.51L51.59-5.51L51.59-5.51Q51.26-3.88 51.26-2.72L51.26-2.72L51.26-2.72Q51.26-1.56 51.44-1.22L51.44-1.22L51.44-1.22Q51.62-0.88 51.94-0.88L51.94-0.88L51.94-0.88Q52.58-0.88 53.05-1.49L53.05-1.49L53.05-1.49Q53.52-2.10 53.70-3.18L53.70-3.18L54.76-9.04L54.76-9.04Q54.34-9.40 53.85-9.40L53.85-9.40L53.85-9.40Q53.36-9.40 53.07-9.24L53.07-9.24L53.07-9.24Q52.78-9.08 52.55-8.72ZM64.82-1.10L64.82-1.10L64.82-1.10Q64.20 0.40 62.22 0.40L62.22 0.40L62.22 0.40Q61.20 0.40 60.56-0.30L60.56-0.30L60.56-0.30Q60.02-0.92 60.02-1.54L60.02-1.54L60.02-1.54Q60.02-3.16 60.76-6.32L60.76-6.32L61.50-10.20L65.56-10.60L64.34-4.28L64.34-4.28Q64-2.80 64-2.28L64-2.28L64-2.28Q64-1.14 64.82-1.10ZM61.86-12.98L61.86-12.98L61.86-12.98Q61.86-13.76 62.51-14.18L62.51-14.18L62.51-14.18Q63.16-14.60 64.10-14.60L64.10-14.60L64.10-14.60Q65.04-14.60 65.61-14.18L65.61-14.18L65.61-14.18Q66.18-13.76 66.18-12.98L66.18-12.98L66.18-12.98Q66.18-12.20 65.55-11.80L65.55-11.80L65.55-11.80Q64.92-11.40 63.98-11.40L63.98-11.40L63.98-11.40Q63.04-11.40 62.45-11.80L62.45-11.80L62.45-11.80Q61.86-12.20 61.86-12.98ZM72.50-7.02L72.50-7.02L72.50-7.02Q72.78-7.76 72.78-8.40L72.78-8.40L72.78-8.40Q72.78-9.58 71.82-9.58L71.82-9.58L71.82-9.58Q71.32-9.58 70.91-9.13L70.91-9.13L70.91-9.13Q70.50-8.68 70.50-8.12L70.50-8.12L70.50-8.12Q70.50-7.72 70.82-7.40L70.82-7.40L70.82-7.40Q71.28-6.96 72.46-6.24L72.46-6.24L72.46-6.24Q73.64-5.52 74.09-4.93L74.09-4.93L74.09-4.93Q74.54-4.34 74.54-3.53L74.54-3.53L74.54-3.53Q74.54-2.72 74.15-1.98L74.15-1.98L74.15-1.98Q73.76-1.24 73.06-0.72L73.06-0.72L73.06-0.72Q71.56 0.40 69.16 0.40L69.16 0.40L69.16 0.40Q67.86 0.40 66.86-0.28L66.86-0.28L66.86-0.28Q65.86-0.94 65.86-1.72L65.86-1.72L65.86-1.72Q65.86-2.50 66.43-2.96L66.43-2.96L66.43-2.96Q67-3.42 67.84-3.42L67.84-3.42L67.84-3.42Q68.68-3.42 69.20-3.10L69.20-3.10L69.20-3.10Q68.94-2.44 68.94-2L68.94-2L68.94-2Q68.94-0.68 70.06-0.68L70.06-0.68L70.06-0.68Q70.54-0.68 70.86-0.98L70.86-0.98L70.86-0.98Q71.18-1.28 71.18-1.80L71.18-1.80L71.18-1.80Q71.18-2.82 69.46-3.90L69.46-3.90L69.46-3.90Q68.06-4.82 67.74-5.18L67.74-5.18L67.74-5.18Q67.20-5.82 67.20-6.62L67.20-6.62L67.20-6.62Q67.20-7.42 67.58-8.18L67.58-8.18L67.58-8.18Q67.96-8.94 68.66-9.48L68.66-9.48L68.66-9.48Q70.12-10.60 72.66-10.60L72.66-10.60L72.66-10.60Q73.96-10.60 74.73-10.08L74.73-10.08L74.73-10.08Q75.50-9.56 75.50-8.68L75.50-8.68L75.50-8.68Q75.50-7.80 74.97-7.30L74.97-7.30L74.97-7.30Q74.44-6.80 73.48-6.80L73.48-6.80L73.48-6.80Q72.82-6.80 72.50-7.02ZM84.34-3.38L84.34-3.38L84.34-3.38Q84.84-3.04 84.84-2.29L84.84-2.29L84.84-2.29Q84.84-1.54 84.46-1.06L84.46-1.06L84.46-1.06Q84.08-0.58 83.46-0.26L83.46-0.26L83.46-0.26Q82.18 0.40 80.80 0.40L80.80 0.40L80.80 0.40Q79.42 0.40 78.61 0.10L78.61 0.10L78.61 0.10Q77.80-0.20 77.26-0.76L77.26-0.76L77.26-0.76Q76.20-1.82 76.20-3.76L76.20-3.76L76.20-3.76Q76.20-6.78 77.84-8.62L77.84-8.62L77.84-8.62Q79.60-10.60 82.66-10.60L82.66-10.60L82.66-10.60Q84.56-10.60 85.50-9.80L85.50-9.80L85.50-9.80Q86.20-9.20 86.20-8.22L86.20-8.22L86.20-8.22Q86.20-4.70 80.12-4.70L80.12-4.70L80.12-4.70Q80.04-4.18 80.04-3.74L80.04-3.74L80.04-3.74Q80.04-2.82 80.45-2.47L80.45-2.47L80.45-2.47Q80.86-2.12 81.62-2.12L81.62-2.12L81.62-2.12Q82.38-2.12 83.19-2.47L83.19-2.47L83.19-2.47Q84-2.82 84.34-3.38ZM80.26-5.56L80.26-5.56L80.26-5.56Q81.68-5.56 82.50-6.44L82.50-6.44L82.50-6.44Q83.32-7.28 83.32-8.62L83.32-8.62L83.32-8.62Q83.32-9.08 83.15-9.33L83.15-9.33L83.15-9.33Q82.98-9.58 82.64-9.58L82.64-9.58L82.64-9.58Q82.30-9.58 82.01-9.45L82.01-9.45L82.01-9.45Q81.72-9.32 81.42-8.88L81.42-8.88L81.42-8.88Q80.68-7.88 80.26-5.56ZM93.14-5.62L93.14-5.62L93.14-5.62Q93.86-6.90 93.86-8.20L93.86-8.20L93.86-8.20Q93.86-9.06 93.24-9.06L93.24-9.06L93.24-9.06Q92.76-9.06 92.26-8.24L92.26-8.24L92.26-8.24Q91.74-7.42 91.58-6.36L91.58-6.36L90.54 0L86.40 0.40L88.44-10.20L91.74-10.60L91.38-8.58L91.38-8.58Q92.36-10.60 94.56-10.60L94.56-10.60L94.56-10.60Q95.72-10.60 96.35-10L96.35-10L96.35-10Q96.98-9.40 96.98-8.17L96.98-8.17L96.98-8.17Q96.98-6.94 96.17-6.16L96.17-6.16L96.17-6.16Q95.36-5.38 93.98-5.38L93.98-5.38L93.98-5.38Q93.38-5.38 93.14-5.62Z" fill="#eb6c6c"></path></g></g><style>text {
  font-size: 64px;
  font-family: Arial Black;
  dominant-baseline: central;
  text-anchor: middle;
}</style></svg>